<?xml version="1.0" encoding="UTF-8"?>
<!DOCTYPE svg  PUBLIC '-//W3C//DTD SVG 1.1//EN'  'http://www.w3.org/Graphics/SVG/1.1/DTD/svg11.dtd'>
<svg clip-rule="evenodd" fill-rule="evenodd" stroke-linejoin="round" stroke-miterlimit="2" version="1.1" viewBox="0 0 535 535" xml:space="preserve" xmlns="http://www.w3.org/2000/svg">
    <g transform="translate(-132.54 -132.54)">
        <path d="m667.46 532.53c0 74.412-60.527 134.94-134.94 134.94h-265.05c-74.412 0-134.94-60.527-134.94-134.94v-265.05c0-74.412 60.527-134.94 134.94-134.94h265.05c74.412 0 134.94 60.527 134.94 134.94v265.05zm-134.94-341.78h-265.05c-42.306 0-76.729 34.423-76.729 76.729v265.05c0 42.306 34.423 76.729 76.729 76.729h265.05c42.306 0 76.729-34.423 76.729-76.729v-265.05c0-42.306-34.423-76.729-76.729-76.729zm9.672 99.971c-17.975 0-32.598-14.623-32.598-32.598 0-17.976 14.623-32.599 32.598-32.599 17.976 0 32.598 14.623 32.598 32.599 0 17.975-14.622 32.598-32.598 32.598zm-142.21 247.06c-75.957 0-137.77-61.809-137.77-137.78 0-75.957 61.809-137.77 137.77-137.77 75.975 0 137.78 61.809 137.78 137.77 0 75.975-61.809 137.78-137.78 137.78zm0-217.32c-43.85 0-79.556 35.688-79.556 79.538 0 43.868 35.706 79.574 79.556 79.574 43.868 0 79.556-35.706 79.556-79.574 0-43.85-35.688-79.538-79.556-79.538z" fill-rule="nonzero"/>
    </g>
</svg>
